<svg xmlns="http://www.w3.org/2000/svg" viewBox="0 0 32 32" fill="#FF5A5F"><path d="M16 1c2.008 0 3.463.963 4.751 3.269l.533 1.025c1.954 3.83 6.114 12.54 7.1 14.836l.145.353c.667 1.591.914 2.472.966 3.233.024.324.037.66.046 1.058.077 3.633-1.85 6.786-4.906 7.821-4.706 1.594-8.328-1.428-8.635-1.706-.307.279-3.929 3.3-8.635 1.706C4.12 31.522 2 28.163 2 24.036c0-2.316.59-4.239 2.029-6.6a43.5 43.5 0 0 1 5.923-8.232C11.895 6.6 13.992 1 16 1zm0 2c-1.396 0-3.003 4.595-5.32 8.795a41.503 41.503 0 0 0-5.65 7.854C3.766 21.733 3.333 23.167 3.333 24.036c0 3.393 1.744 6.155 4.382 7.049 3.33.957 6.22-1.077 7.202-2.392.29-.387.653-.987 1.083-2.021.432-1.036.852-2.735 1.022-7.235l.029-.933.914-.076c.41-.034.835-.05 1.272-.05 2.193 0 4.354.437 5.765 1.157l.666.357-.272 1.307a9.3 9.3 0 0 1-.36 1.312c-.22.617-.557 1.139-1.025 1.623-1.127 1.166-2.585 1.713-4.148 1.579l-.261-.028-.27.24a3.17 3.17 0 0 0-.822 1.942l.006.183a1.76 1.76 0 0 0 1.961 1.593c2.65-.228 5.433-2.31 5.433-5.266 0-.012-.002-.27-.006-.676-.046-.667-.267-1.428-.865-2.853l-.16-.381c-.974-2.27-5.086-10.87-7.01-14.639L16 3z"/></svg>
