<svg xmlns="http://www.w3.org/2000/svg" width="32" height="32" viewBox="0 0 32 32">
  <path d="m31.034 15.517c0 8.57-6.947 15.517-15.517 15.517-8.57 0-15.517-6.947-15.517-15.517 0-8.57 6.947-15.517 15.517-15.517 8.57 0 15.517 6.947 15.517 15.517" fill="#ecb360"/>
  <path d="m26.896 13.965c0 7.713-6.021 13.965-13.448 13.965-7.427 0-13.448-6.252-13.448-13.965 0-7.712 6.021-13.965 13.448-13.965 7.427 0 13.448 6.252 13.448 13.965" fill="#d76835"/>
  <path d="m27.931 12.413c0 6.856-5.326 12.414-11.897 12.414-6.57 0-11.896-5.558-11.896-12.414 0-6.856 5.326-12.414 11.896-12.414 6.57 0 11.897 5.558 11.897 12.414" fill="#d33a41"/>
  <path d="m26.896 13.448c0 6.284-4.863 11.379-10.862 11.379-5.999 0-10.862-5.095-10.862-11.379 0-6.285 4.863-11.38 10.862-11.38 5.999 0 10.862 5.095 10.862 11.38" fill="#b6cb46"/>
  <path d="m25.862 14.482c0 5.713-4.632 10.345-10.345 10.345-5.713 0-10.345-4.632-10.345-10.345 0-5.713 4.632-10.345 10.345-10.345 5.713 0 10.345 4.632 10.345 10.345" fill="#66ad4a"/>
  <path d="m21.724 12.414c0 4.57-3.705 8.276-8.276 8.276-4.57 0-8.276-3.705-8.276-8.276 0-4.57 3.705-8.276 8.276-8.276 4.57 0 8.276 3.705 8.276 8.276" fill="#aed7dc"/>
  <path d="m22.758 11.379c0 4-3.242 7.241-7.241 7.241-4 0-7.241-3.242-7.241-7.241 0-4 3.242-7.241 7.241-7.241 4 0 7.241 3.242 7.241 7.241" fill="#5bb1cf"/>
  <path d="m22.758 11.896c0 3.714-2.779 6.724-6.207 6.724s-6.207-3.01-6.207-6.724c0-3.713 2.779-6.724 6.207-6.724s6.207 3.01 6.207 6.724" fill="#25a8c3"/>
  <path d="m15.517 12.93c0 3.142-2.316 5.69-5.172 5.69-2.856 0-5.172-2.548-5.172-5.69 0-3.142 2.316-5.69 5.172-5.69 2.856 0 5.172 2.548 5.172 5.69z" fill="#1b1a18"/>
  <path d="m18.34 11.29c-.492.823-1.46 1.3-2.162 1.063s-.871-1.096-.379-1.92c.492-.823 1.46-1.3 2.162-1.063s.871 1.096.379 1.92" fill="#fffffe"/>
</svg>
