<svg xmlns="http://www.w3.org/2000/svg" height="32" viewBox="0 0 180 32" width="180" class="w-svg" role="img">
  <title>BrowserStack Logo</title>
  <g fill="none" fill-rule="evenodd">
    <g>
      <path d="m31.034 15.517c0 8.57-6.947 15.517-15.517 15.517-8.57 0-15.517-6.947-15.517-15.517 0-8.57 6.947-15.517 15.517-15.517 8.57 0 15.517 6.947 15.517 15.517" fill="#ecb360"/>
      <path d="m26.896 13.965c0 7.713-6.021 13.965-13.448 13.965-7.427 0-13.448-6.252-13.448-13.965 0-7.712 6.021-13.965 13.448-13.965 7.427 0 13.448 6.252 13.448 13.965" fill="#d76835"/>
      <path d="m27.931 12.413c0 6.856-5.326 12.414-11.897 12.414-6.57 0-11.896-5.558-11.896-12.414 0-6.856 5.326-12.414 11.896-12.414 6.57 0 11.897 5.558 11.897 12.414" fill="#d33a41"/>
      <path d="m26.896 13.448c0 6.284-4.863 11.379-10.862 11.379-5.999 0-10.862-5.095-10.862-11.379 0-6.285 4.863-11.38 10.862-11.38 5.999 0 10.862 5.095 10.862 11.38" fill="#b6cb46"/>
      <path d="m25.862 14.482c0 5.713-4.632 10.345-10.345 10.345-5.713 0-10.345-4.632-10.345-10.345 0-5.713 4.632-10.345 10.345-10.345 5.713 0 10.345 4.632 10.345 10.345" fill="#66ad4a"/>
      <path d="m21.724 12.414c0 4.57-3.705 8.276-8.276 8.276-4.57 0-8.276-3.705-8.276-8.276 0-4.57 3.705-8.276 8.276-8.276 4.57 0 8.276 3.705 8.276 8.276" fill="#aed7dc"/>
      <path d="m22.758 11.379c0 4-3.242 7.241-7.241 7.241-4 0-7.241-3.242-7.241-7.241 0-4 3.242-7.241 7.241-7.241 4 0 7.241 3.242 7.241 7.241" fill="#5bb1cf"/>
      <path d="m22.758 11.896c0 3.714-2.779 6.724-6.207 6.724s-6.207-3.01-6.207-6.724c0-3.713 2.779-6.724 6.207-6.724s6.207 3.01 6.207 6.724" fill="#25a8c3"/>
      <path d="m15.517 12.93c0 3.142-2.316 5.69-5.172 5.69-2.856 0-5.172-2.548-5.172-5.69 0-3.142 2.316-5.69 5.172-5.69 2.856 0 5.172 2.548 5.172 5.69z" fill="#1b1a18"/>
      <path d="m18.34 11.29c-.492.823-1.46 1.3-2.162 1.063s-.871-1.096-.379-1.92c.492-.823 1.46-1.3 2.162-1.063s.871 1.096.379 1.92" fill="#fffffe"/>
    </g>
    <g fill="#333" transform="translate(40, 7)">
      <path d="M12.4 17.5h-5.2v-15h5.2c2.4 0 4.1.6 5.1 1.7.9 1.1 1.4 2.6 1.4 4.5 0 1.3-.3 2.5-.8 3.5-.5 1-1.3 1.8-2.3 2.4-1.1.6-2.2.9-3.4.9zm-2.4-12.2v9.4h2.4c1.1 0 2-.3 2.6-.9s.9-1.5.9-2.7c0-2.3-1.1-3.5-3.4-3.5h-2.5zM26.4 17.5V7.8h2.6v1.4c.4-.6 1-1.1 1.6-1.4.6-.3 1.3-.5 2-.5 1 0 1.8.3 2.4.8.6.5.9 1.2.9 2.1v7.2h-2.8v-6.9c0-.4-.1-.7-.3-1s-.5-.4-.9-.4-1 .3-1.5 1-1.2 1.3-1.3 2.2V17.5h-2.7zM42.4 13c0 1.4.5 2.5 1.5 3.3 1 .8 2.2 1.2 3.6 1.2 1.4 0 2.6-.4 3.6-1.2.9-.8 1.4-1.9 1.4-3.3 0-1.4-.5-2.5-1.5-3.3-1-.8-2.2-1.2-3.6-1.2-1.4 0-2.6.4-3.6 1.2-1 1-1.5 2.1-1.5 3.3zm2.8 0c0-.8.2-1.4.5-1.9s.7-.7 1.2-.7 1 .2 1.3.7.5 1.1.5 1.9-.2 1.4-.5 1.9-.7.7-1.2.7-1-.2-1.3-.7-.5-1.1-.5-1.9zM56.4 7.8h2.8l1.4 5.3 1.4-5.3h2.8l1.4 5.3 1.4-5.3h2.8l-2.6 9.7h-3l-1.4-5.3-1.4 5.3h-3l-2.6-9.7zM75.4 13.5c0 .6.1 1.1.4 1.5s.7.6 1.2.6 1-.2 1.4-.6.6-1 .8-1.5c.2-.5.3-1.1.3-1.7 0-.6-.1-1.1-.4-1.5s-.7-.6-1.2-.6-1 .2-1.4.6-.6 1-.8 1.5c-.2.5-.3 1.1-.3 1.7zm0 1.7v2.3h-2.8V7.8h2.8v1.4c.5-.6 1.1-1.1 1.8-1.4.7-.3 1.4-.5 2.1-.5 1.5 0 2.7.5 3.6 1.4 1 1 1.5 2.3 1.5 4s-.5 3-1.5 4c-1 1-2.1 1.5-3.6 1.5-.7 0-1.4-.2-2.1-.5s-1.3-.8-1.8-1.4zM89.4 13c0 1.4.5 2.5 1.5 3.3 1 .8 2.2 1.2 3.6 1.2 1.4 0 2.6-.4 3.6-1.2.9-.8 1.4-1.9 1.4-3.3 0-1.4-.5-2.5-1.5-3.3-1-.8-2.2-1.2-3.6-1.2-1.4 0-2.6.4-3.6 1.2-1 1-1.5 2.1-1.5 3.3zm2.8 0c0-.8.2-1.4.5-1.9s.7-.7 1.2-.7 1 .2 1.3.7.5 1.1.5 1.9-.2 1.4-.5 1.9-.7.7-1.2.7-1-.2-1.3-.7-.5-1.1-.5-1.9zM103.4 7.8h2.8l-.8 2.6V17.5h-2.8V7.8zM110.4 14.5c.2.6.5 1 1 1.3.5.3 1 .4 1.6.4s1-.2 1.5-.5.7-.7.7-1.2c0-.4-.1-.7-.4-1s-1-.5-2.1-1c-1.1-.5-1.8-.8-2.3-1.1-.5-.3-.9-.7-1.1-1.2-.2-.5-.3-1-.3-1.6 0-1 .4-1.8 1.1-2.4s1.7-.9 2.9-.9c.8 0 1.6.2 2.3.5.7.3 1.3.8 1.7 1.4s.6 1.3.6 2.1h-2.7c-.1-.5-.3-.9-.7-1.1s-.8-.3-1.3-.3-.9.1-1.3.5c-.4.4-.6.7-.6 1.2 0 .4.1.7.4.9s.9.4 2 .9c1.1.5 1.9.9 2.4 1.2.5.3.9.7 1.1 1.2.2.5.3 1.1.3 1.8 0 1-.4 1.8-1.2 2.4s-1.8.9-3.2.9c-1.3 0-2.4-.3-3.2-1s-1.2-1.7-1.3-3h2.7zM124.4 12V7.8h2.8v1.4c.5-.7 1.1-1.2 1.8-1.5 1-.4 1.9-.6 3-.6 1.5 0 2.8.5 3.8 1.5 1 1 1.5 2.3 1.5 4s-.5 3-1.5 4c-1 1-2.3 1.5-3.8 1.5-1.1 0-2-.2-3-.6-.7-.3-1.3-.8-1.8-1.5V20h-2.8V5h2.8v7zm2.8 1.5c0 .6.1 1.2.4 1.6.4.6 1 1 1.8 1.1.7.1 1.3.1 1.9-.1 1.2-.3 1.8-1.3 1.8-2.9 0-1.6-.6-2.6-1.8-2.9-.6-.2-1.2-.2-1.9-.1-.8.1-1.4.5-1.8 1.2-.3.4-.4 1-.4 1.6v.5zM142.4 17.5h-2.8V3h2.8v14.5zM152.4 13.5c0 .6.1 1.1.4 1.5s.7.6 1.2.6 1-.2 1.4-.6.6-1 .8-1.5c.2-.5.3-1.1.3-1.7 0-.6-.1-1.1-.4-1.5s-.7-.6-1.2-.6-1 .2-1.4.6-.6 1-.8 1.5c-.2.5-.3 1.1-.3 1.7zm0 1.7v2.3h-2.8V7.8h2.8v1.4c.5-.6 1.1-1.1 1.8-1.4.7-.3 1.4-.5 2.1-.5 1.5 0 2.7.5 3.6 1.4 1 1 1.5 2.3 1.5 4s-.5 3-1.5 4c-1 1-2.1 1.5-3.6 1.5-.7 0-1.4-.2-2.1-.5s-1.3-.8-1.8-1.4zM167.4 17.5l-.8-2.6c-.5.6-1.1 1.1-1.8 1.4s-1.4.5-2.1.5c-1.1 0-2-.3-2.7-.9-.7-.6-1-1.4-1-2.4 0-.9.3-1.6.9-2.2s1.4-.9 2.5-1.1c1.1-.2 2.5-.3 4.2-.4V9c0-.4-.1-.7-.3-1s-.5-.4-1-.4-1 .1-1.4.4-.6.6-.7 1h-2.7c0-.8.3-1.5.8-2.1.5-.6 1.1-1 1.9-1.3.8-.3 1.6-.4 2.5-.4 1.3 0 2.3.3 3 .9s1 1.5 1 2.8v10.6h-2.6zm-2.8-5c-1.5.1-2.6.2-3.3.4s-1 .4-1.2.7c-.2.3-.3.6-.3 1 0 .4.1.7.3.9.2.2.5.3 1 .3.4 0 .9-.1 1.3-.4s.8-.7 1-1.3c.2-.6.2-1.1.2-1.6zM176.4 17.5c-1.3 0-2.3-.4-3-1.1s-1.1-1.9-1.1-3.6c0-1.7.3-2.9 1-3.7.7-.8 1.7-1.3 2.9-1.3s2 .2 2.7.7c.7.5.9 1.2.9 2.1h-2.7c0-.4-.1-.7-.3-.9s-.5-.3-.9-.3c-.6 0-1 .2-1.3.6s-.4 1.2-.4 2.3.1 1.9.4 2.3 1 .6 1.3.6c.4 0 .7-.1.9-.3s.3-.4.3-.9h2.7c0 .9-.3 1.6-.9 2.1-.6.7-1.6 1-2.8 1zM186.4 17.5l-2.6-4.3-1.4 1.4v2.9h-2.8V3h2.8v7.8l5.2-10.8z"/>
    </g>
  </g>
</svg>
