<svg xmlns="http://www.w3.org/2000/svg" viewBox="0 0 1000 200"><path d="M72.3 147.4c-9.1 0-16.7-2.6-22.8-7.9s-9.1-12.2-9.1-20.9 2.5-16.1 7.6-22.3 16.7-11.2 34.8-15l23.6-5c12.2-2.6 18.3-8.6 18.3-17.9 0-5.8-2.3-10.5-7-14.1-4.7-3.6-10.7-5.4-18.1-5.4-8.1 0-14.6 2.1-19.5 6.3-4.9 4.2-7.4 9.8-7.4 16.7H13.6c0-14.7 5.7-27.1 17.1-37C42.1 14.9 57.1 9.9 75.8 9.9c18.3 0 32.7 4.2 43.1 12.7 10.4 8.5 15.6 20.3 15.6 35.4 0 9.1-2.9 16.7-8.6 22.8-5.7 6.1-17.6 11.2-35.6 15.4l-23 5.3c-11.9 2.8-17.9 9-17.9 18.6 0 6 2.4 10.9 7.2 14.6 4.8 3.7 11.3 5.6 19.5 5.6 17.9 0 29.5-8.2 34.8-24.6h60.4c-2.3 16-10.2 27.2-23.7 33.7-9.4 4.5-22 6.8-37.8 6.8h-17.5zM224.2 145h-59V12.1h59v19.6h-37.4v33.9h34.8v19.6h-34.8v40.2h37.4V145zM305 145h-21.7V12.1h39.1c16.5 0 29.1 4.3 37.8 12.8 8.7 8.5 13 19.9 13 34.2 0 14.3-4.3 25.7-13 34.2-8.7 8.5-21.3 12.8-37.8 12.8H305V145zm0-58.8h17.9c9.3 0 16.3-2.2 21.1-6.6 4.8-4.4 7.2-10.7 7.2-18.9 0-7.9-2.3-14.1-7-18.4-4.7-4.3-11.6-6.5-20.9-6.5H305v50.4zM459.7 145h-21.7V12.1h21.7V70h41.6V12.1h21.7V145h-21.7V89.6h-41.6V145zM639.4 147.4c-17.6 0-32-5.7-43.1-17.2s-16.7-26.6-16.7-45.3S585.2 56.8 596.3 45.4c11.1-11.4 25.5-17.2 43.1-17.2s32 5.7 43.1 17.2S699.2 72 699.2 90.7s-5.6 33.9-16.7 45.3c-11.1 11.5-25.5 17.2-43.1 11.4zm0-20.9c10.4 0 18.9-3.6 25.3-10.7 6.4-7.1 9.7-16.7 9.7-28.7s-3.2-21.5-9.7-28.7c-6.4-7.1-14.9-10.7-25.3-10.7-10.4 0-18.8 3.6-25.3 10.7-6.4 7.1-9.7 16.7-9.7 28.7s3.2 21.5 9.7 28.7c6.5 7.1 14.9 10.7 25.3 10.7zM796.6 145h-21.7V12.1h39.8c16.3 0 28.5 4 36.6 11.9 8.1 7.9 12.2 18.2 12.2 30.7 0 9.1-2.3 17.1-7 23.9-4.7 6.8-11.3 11.5-19.8 14.1l32.3 52.3h-25.5l-29.3-49.1h-17.5V145zm0-66.2h17.9c9.3 0 16.1-2.1 20.4-6.3 4.3-4.2 6.5-10.2 6.5-17.9s-2.1-13.6-6.4-17.7c-4.3-4.1-11.1-6.1-20.5-6.1h-17.9v48zM928.7 115.6l-8.6 29.3H898l39.1-132.8h23.2l39.1 132.8h-22.3l-8.6-29.3h-40zM948.7 41l-14.3 56.4h28.7L948.7 41z"/></svg>
